<?xml version="1.0" encoding="utf-8"?>
<!-- Generator: Adobe Illustrator 24.3.0, SVG Export Plug-In . SVG Version: 6.00 Build 0)  -->
<svg version="1.1" id="Layer_1" xmlns="http://www.w3.org/2000/svg" xmlns:xlink="http://www.w3.org/1999/xlink" x="0px" y="0px"
	 viewBox="0 0 612 792" style="enable-background:new 0 0 612 792;" xml:space="preserve">
<style type="text/css">
	.st0{fill:none;stroke:#231F20;stroke-miterlimit:10;}
	.st1{fill:none;stroke:#231F20;stroke-width:0.8;stroke-miterlimit:10;}
	.st2{fill:none;stroke:#231F20;stroke-width:0.64;stroke-miterlimit:10;}
	.st3{fill:#0F60B2;stroke:#231F20;stroke-width:0.8536;stroke-miterlimit:10;}
	.st4{fill:#FFFDD2;stroke:#231F20;stroke-width:0.5;stroke-miterlimit:10;}
	.st5{fill:#BE1E2D;stroke:#231F20;stroke-width:0.7286;stroke-miterlimit:10;}
	.st6{fill:#412082;stroke:#231F20;stroke-width:0.4226;stroke-miterlimit:10;}
	.st7{fill:#0C787A;stroke:#231F20;stroke-width:0.4226;stroke-miterlimit:10;}
	.st8{fill:#E2BB5A;stroke:#231F20;stroke-miterlimit:10;}
	.st9{fill:#E2F2F7;stroke:#231F20;stroke-width:0.5586;stroke-miterlimit:10;}
	.st10{fill:#93A5B5;stroke:#231F20;stroke-width:0.4621;stroke-miterlimit:10;}
	.st11{fill:#1C11AA;stroke:#231F20;stroke-width:0.4226;stroke-miterlimit:10;}
	.st12{fill:#D87D39;stroke:#231F20;stroke-miterlimit:10;}
	.st13{opacity:0.37;fill:#963A24;}
</style>
<ellipse transform="matrix(0.9787 -0.2054 0.2054 0.9787 -53.575 -36.2812)" class="st0" cx="-201.5" cy="239.85" rx="138.89" ry="56.41"/>
<ellipse transform="matrix(0.9787 -0.2054 0.2054 0.9787 -88.3035 78.941)" class="st0" cx="335.99" cy="464.7" rx="138.89" ry="56.41"/>
<ellipse transform="matrix(0.9787 -0.2054 0.2054 0.9787 -87.6871 78.877)" class="st0" cx="335.99" cy="461.7" rx="97.22" ry="39.49"/>
<ellipse transform="matrix(0.9787 -0.2054 0.2054 0.9787 -53.575 -36.2812)" class="st1" cx="-201.5" cy="239.85" rx="111.11" ry="45.13"/>
<ellipse transform="matrix(0.9787 -0.2054 0.2054 0.9787 -53.575 -36.2812)" class="st2" cx="-201.5" cy="239.85" rx="88.89" ry="36.1"/>
<ellipse transform="matrix(0.9787 -0.2054 0.2054 0.9787 -87.2763 78.8343)" class="st0" cx="335.99" cy="459.7" rx="47.64" ry="19.35"/>
<g>
	<circle class="st3" cx="297.84" cy="455.68" r="6.02"/>
	<circle class="st4" cx="290.32" cy="451.17" r="1.5"/>
</g>
<circle class="st5" cx="244.6" cy="481.1" r="5.14"/>
<circle class="st6" cx="473.26" cy="466.44" r="2.98"/>
<circle class="st7" cx="422.77" cy="485.19" r="2.98"/>
<g>
	<circle class="st8" cx="328.08" cy="419.74" r="6.1"/>
	<path class="st0" d="M333.14,416.88c3.16-0.42,5.35-0.37,5.48,0.23c0.21,0.92-4.72,2.29-10.7,3.67s-10.72,2.23-10.93,1.31
		c-0.14-0.6,1.82-1.85,4.89-2.86"/>
</g>
<circle class="st9" cx="321.31" cy="477.89" r="4.32"/>
<circle class="st10" cx="351.79" cy="470.01" r="3.57"/>
<circle class="st11" cx="411.14" cy="499.97" r="2.98"/>
<g>
	<circle class="st12" cx="388.95" cy="418.02" r="11.05"/>
	<path class="st13" d="M397.48,417.3c-0.06-0.11-2.19,1.01-4.96,2.58c-0.39-0.07-1.23,0.25-1.94,0.53c-0.83,0.33-1.7,1.17-1.69,1.58
		c-2.11,1.26-3.55,2.2-3.5,2.29c0.05,0.09,1.72-0.76,4.01-2.04c0.47-0.03,1.16-0.25,1.73-0.48c0.68-0.28,1.35-0.94,1.55-1.4
		C395.47,418.72,397.54,417.4,397.48,417.3z"/>
</g>
</svg>
